#N canvas 543 684 450 300 10;
#X obj 100 216 makenote;
#X obj 101 262 noteout;
#X floatatom 128 47 5 0 0 0 - - -;
#X obj 82 89 list split;
#X obj 82 125 list trim;
#X msg 70 158 \$1;
#X floatatom 131 159 5 0 0 0 - - -;
#X floatatom 26 180 5 0 0 0 - - -;
#X msg 41 15 list 26 27 28 29 60;
#X connect 0 0 1 0;
#X connect 0 1 1 1;
#X connect 2 0 3 1;
#X connect 3 1 4 0;
#X connect 4 0 5 0;
#X connect 5 0 0 0;
#X connect 6 0 0 1;
#X connect 7 0 0 0;
#X connect 8 0 3 0;
